<?xml version="1.0" encoding="utf-8"?>
<!-- Generator: Adobe Illustrator 19.2.1, SVG Export Plug-In . SVG Version: 6.00 Build 0)  -->
<svg version="1.1" id="layer" xmlns="http://www.w3.org/2000/svg" xmlns:xlink="http://www.w3.org/1999/xlink" x="0px" y="0px"
	 viewBox="0 0 652 652" style="enable-background:new 0 0 652 652;" xml:space="preserve">
<style type="text/css">
	.st0{fill:#7B002F;}
	.st1{fill:#EAB000;}
</style>
<g>
	<path class="st0" d="M123.7,313.3l-1.2,21.4c-0.1,1.1-0.3,3.3-0.3,4.8c0,3.8,1,5.6,4,6.2l0.2,0v2.1h-0.3c-2.2,0-4.4-0.3-6.6-0.3
		s-4.4,0.3-6.7,0.3h-0.2v-2.1l0.2,0c3.2-0.7,4-2.9,4.5-8.7l3.7-42.3h2.8l22.4,39.9l19.6-39.8l0.1-0.1h2.6l3.3,44
		c0.3,3.7,1.1,6.8,3.9,7h0.2v2.1h-0.2c-2.6,0-5.1-0.3-7.7-0.3c-2.6,0-5.1,0.3-7.7,0.3h-0.3v-2.1l0.2,0c2.2-0.3,3.1-2.5,3.1-4.9
		c0-2.4-0.1-4-0.3-5l-1.9-21.6l-16.7,34.1L123.7,313.3z"/>
	<path class="st0" d="M179.8,332.3c0-7.1,5.1-16.3,15.3-16.3c7.7,0,13.8,4.9,13.9,12.9v0.3h-21.5c0,0.2,0,0.5,0,0.7
		c0,6.8,5,12.7,12.1,12.7c2.7,0,5.4-0.7,7.6-2.3l0.2-0.1l1,1.2l-4.2,6.1l-0.1,0c-1.5,0.5-4,1.1-7.1,1.1
		C184.9,348.5,179.8,339.3,179.8,332.3 M187.2,329.1v-0.3V329.1z M200.8,325.9v-0.2V325.9z M200.5,325.6c-0.1-4.1-2-6.6-6.6-6.7
		c-3.8,0-6.2,3.1-6.2,6.6v0.1H200.5z"/>
	<path class="st0" d="M213.9,332.3c0-7.1,5.1-16.3,17.3-16.3c3.7,0,7.2,0.7,10.5,1.9l0.2,0l0.5,7.6h-0.3v-0.2v0.2h0.3v0.3h-2.4
		l-0.1-0.2c-1.5-3.7-4.3-6.2-8.1-6.2c-6.6,0-9.3,6-9.4,12c0,6.1,4.4,12.9,11.7,12.9c3.3,0,5.9-1.3,7.9-3.6l0.1-0.1l1.8,0.5l-2.4,5.8
		l-0.1,0c-3,0.9-6.1,1.5-10.3,1.5C219.1,348.5,214,339.3,213.9,332.3"/>
	<path class="st0" d="M280.1,347.7c-2.2-0.1-4.3-0.2-6.4-0.2c-2.1,0-4.1,0.1-6.2,0.2l-0.3,0v-2l0.2,0c1.6-0.2,2.6-1,2.6-3.1v-6
		c0-3.1-0.2-6.2-0.2-8.3c0-3.7-0.9-7.8-5.5-7.8c-2.1,0-4,1-6.3,2.1v20c0,1.4,0.6,2.3,3,3.1l0.2,0v1.9h-0.2c-2.4,0-4.8-0.2-7.2-0.2
		c-1.9,0-3.9,0.1-5.9,0.2l-0.2,0v-1.9l0.2,0c1.7-0.6,2.5-0.9,2.5-3.1V326c0-8.6-0.4-18.6-0.4-21.8c0-1.6-2.2-2.3-4.1-2.3h-0.2v-1.7
		v-0.2l0.2,0c2.9-0.6,8-2.8,10.3-5l0.1-0.1h1.8v23.9c3-1.9,6.5-2.7,10.2-2.7c2.4,0,4.8,0.6,6.5,2.3c1.8,1.7,3,4.4,3,8.6v15.9
		c0,1.4,0.6,2.9,2.4,3.1l0.2,0v2L280.1,347.7z"/>
	<path class="st0" d="M309.1,348.6c-2.7-0.4-4.9-1.7-6-3.5c-2.4,1.8-4.8,3.5-8.1,3.5c-5.1,0-10.2-3.2-10.2-8.8
		c0-8,7.7-11.1,14.5-11.1c1.1,0,2.3,0.2,3.2,0.2c0-3.9-0.4-7.9-5.1-7.9c-3.6,0-5.3,1.1-7.1,3.8l-0.1,0.1h-1.9v-0.2h0.3h-0.3v0.2
		h-0.2v-7.5l0.2,0c3.1-0.9,6.1-1.3,9.6-1.3c3.3,0,6.4,0.4,8.7,1.8c2.3,1.4,3.8,3.8,3.8,7.6c0,2.7-0.2,6.5-0.3,10.7v2.6
		c0,3.4,0.5,4.1,2,4.1c0.3,0,1-0.1,1.5-0.3l0.1,0l1.4,1.4L309.1,348.6L309.1,348.6z M292.5,337.9c0,3.3,2.6,5.7,5.5,5.7
		c2.2,0,3.6-0.5,4.7-1.1l-0.2-10.5c-0.8-0.1-2.1-0.3-3.3-0.3C295.9,331.6,292.5,333.3,292.5,337.9"/>
	<path class="st0" d="M353.2,347.7c-1.9-0.1-3.6-0.2-5.5-0.2c-2.3,0-4.6,0.2-7,0.2h-0.2v-1.9l0.2,0c2-0.5,2.4-0.8,2.5-3.3v-12.8
		c0-2-0.2-4.3-1-6.1c-0.9-1.8-2.2-3.1-4.8-3.1c-0.7,0-2.2,0.2-3.6,0.7c-1.3,0.5-2.4,1.3-2.4,2.5c0,2.8-0.1,7-0.1,12.7v6.1
		c0.1,2.6,0.6,3,2.5,3.2l0.2,0v2h-0.3c-2.2-0.1-4.2-0.2-6.4-0.2c-2.1,0-4.2,0.2-6.3,0.2h-0.3v-1.9l0.2,0c1.9-0.7,2.5-0.8,2.6-3.3
		v-7.2c0-4.3-0.4-8.3-0.4-10.7c0-2.1-0.9-3.1-3-3.2h-0.3v-1.7v-0.2l0.2,0c4.3-0.8,7-1.9,9.8-3.7l0,0h1.8v0.3
		c-0.1,1.1-0.1,2.1-0.1,3.2c2.6-1.6,5.7-3.3,8.8-3.3c3.7,0,6.3,1.1,8,3c1.7,2,2.4,4.7,2.4,7.9v15.7c0.1,2.3,0.4,2.6,2.5,3.3l0.2,0
		v1.9H353.2z"/>
	<path class="st0" d="M361.1,345.8l0.2,0c1.8-0.5,2.3-0.6,2.4-3.1v-9.2c0-5.3-0.4-8.2-1-9.8c-0.6-1.4-1.2-1.8-2.9-2.1l-0.2,0v-1.9
		l0.2,0c3.4-0.8,7.3-2.2,9.5-3.7l0.1,0h1.6v0.3v-0.3h0.2v0.3c0,3.1,0.3,9.6,0.3,15.7v10.8c0,2.4,1,2.6,2.7,3.1l0.2,0v1.9H374
		c-2.2,0-4.5-0.2-6.7-0.2c-2,0-4,0.1-6,0.2h-0.3V345.8z M367.2,303.4c2.2,0,4.3,1.6,4.3,4c0,2.4-2.1,4-4.3,4c-2.2,0-4.3-1.6-4.3-4
		C362.9,305.1,365,303.4,367.2,303.4v0.2"/>
	<path class="st0" d="M380.4,332.3c0-7.1,5.1-16.3,17.3-16.3c3.7,0,7.1,0.7,10.5,1.9l0.2,0l0.5,7.6h-0.2v-0.2v0.2h0.2l0,0.3h-2.4
		l-0.1-0.2c-1.5-3.7-4.3-6.2-8.1-6.2c-6.6,0-9.3,6-9.4,12c0,6.1,4.4,12.9,11.7,12.9c3.3,0,5.9-1.3,7.9-3.6l0.1-0.1l1.8,0.5l-2.4,5.8
		l-0.1,0c-3,0.9-6.1,1.5-10.3,1.5C385.6,348.5,380.5,339.3,380.4,332.3"/>
	<path class="st0" d="M418,346.4L418,346.4l-0.6-7.3h3v0.2V339h0.2l0,0.2c0.7,3.5,3.5,5.9,6.7,5.9c2.7,0,4.9-1.6,4.9-4.4
		c0.1-2.4-3.6-3.6-7.5-5.3c-3.8-1.7-7.8-4.1-7.8-9.5c0-7,5.8-10,12-10c3.2,0,6.4,1,9.5,1.9l0.2,0l-0.3,7.1h-2.8l0-0.2
		c-0.8-3.7-2.7-5.4-6.6-5.4c-2.9,0-4.9,1.5-4.9,4.4c0,3.3,3.5,4.4,7.2,5.9c3.7,1.5,7.5,3.4,7.5,8.7c0,3.6-1.4,6.2-3.6,7.8
		c-2.2,1.6-5.2,2.4-8.4,2.4C424.1,348.6,420.3,347.8,418,346.4"/>
	<path class="st0" d="M475.9,347.5h-13v-1.8l0.2,0c3.2-0.4,3.9-1.3,4-4.4v-15c0-8.9-0.2-18.3-0.2-25c0-2.7-1-3.2-3-3.5l-0.2,0v-2.1
		h0.2c3.7,0,6.7,0.3,9.7,0.3c3.3,0,5-0.3,6.8-0.3c8.3,0,18.5,3.6,18.5,13.4c0,6.3-5,10.3-10.4,12.2c6.7,2,11.3,6,11.3,13.6
		c0,9.8-9.8,12.9-17.9,12.9C480,347.8,478,347.5,475.9,347.5 M480.5,344.7c6.2,0,9.9-4.4,9.9-10c0-6.6-4-11.5-11-11.5
		c-1.2,0-2.3,0-3.8,0.1v17C475.7,344.2,475.9,344.6,480.5,344.7 M478.7,319.6c6.5,0,10.8-3.9,10.8-10.3c0-6.5-2.9-10.5-10.8-10.6
		c-1,0-1.8,0-2.2,0.2c-0.4,0.2-0.5,0.4-0.5,1.1l-0.4,19.4C476.8,319.6,477.8,319.6,478.7,319.6"/>
	<path class="st0" d="M529.3,348.6c-2.7-0.4-4.9-1.7-6-3.5c-2.4,1.8-4.8,3.5-8.1,3.5c-5.1,0-10.2-3.2-10.2-8.8
		c0-8,7.7-11.1,14.5-11.1c1.1,0,2.3,0.2,3.2,0.2c0-3.9-0.4-7.9-5.1-7.9c-3.6,0-5.3,1.1-7.1,3.8l-0.1,0.1h-1.9v-0.2h0.2h-0.2v0.2
		h-0.3v-7.5l0.2,0c3.1-0.9,6.1-1.4,9.6-1.3c3.3,0,6.4,0.4,8.7,1.8c2.3,1.4,3.8,3.8,3.8,7.6c0,2.7-0.2,6.5-0.3,10.7v2.6
		c0,3.4,0.5,4.1,2,4.1c0.3,0,1-0.1,1.5-0.3l0.1,0l1.4,1.4l-5.8,4.7H529.3z M512.7,337.9c0,3.3,2.6,5.7,5.5,5.7
		c2.2,0,3.6-0.5,4.7-1.1l-0.2-10.5c-0.8-0.1-2.1-0.3-3.3-0.3C516.1,331.6,512.7,333.3,512.7,337.9"/>
	<path class="st0" d="M571.9,347.7c-1.9-0.1-3.6-0.2-5.5-0.2c-2.3,0-4.6,0.2-7,0.2h-0.2v-1.9l0.2,0c2-0.5,2.4-0.8,2.5-3.3v-12.8
		c0-2-0.2-4.3-1-6.1c-0.9-1.8-2.2-3.1-4.8-3.1c-0.7,0-2.2,0.2-3.6,0.7c-1.3,0.5-2.4,1.3-2.4,2.5c0,2.8-0.1,7-0.1,12.7v6.1
		c0.1,2.6,0.6,3,2.5,3.2l0.2,0v1.9h-0.2c-2.2-0.1-4.2-0.2-6.4-0.2c-2.1,0-4.2,0.2-6.3,0.2h-0.3v-1.9l0.2,0c1.9-0.7,2.5-0.8,2.6-3.3
		v-7.2c0-4.3-0.4-8.3-0.4-10.7c0-2.1-0.9-3.1-3-3.2h-0.2v-1.7v-0.2l0.2,0c4.4-0.8,7-1.9,9.8-3.7l0,0h1.8v0.2
		c-0.1,1.1-0.1,2.1-0.1,3.2c2.6-1.6,5.7-3.3,8.8-3.3c3.7,0,6.3,1.1,8,3c1.7,2,2.4,4.7,2.4,7.9v15.7c0.1,2.3,0.5,2.6,2.5,3.3l0.2,0
		v1.9L571.9,347.7z"/>
	<path class="st0" d="M577.2,345.8l0.2,0c2.1-0.4,2.6-1.5,2.6-3.1v-24c0-4.3-0.4-9.8-0.6-12.6c-0.1-3-1.8-4.6-3.4-4.6h-0.3v-2.1
		l0.2,0c3.7-1,7.1-2.5,9.8-4.5l0.1,0h2v34.5l5.6-5.6c1.5-1.5,1.8-2.6,1.8-3.3c0-0.6-0.6-1.5-1.2-1.7l-0.1-0.1v-1.9l0.3,0
		c2,0.1,4.1,0.2,6,0.2c1.8,0,3.7-0.1,5.5-0.2l0.3,0v1.9l-0.2,0c-2.6,0.7-5,2.4-6.8,4.2l-5.5,5.8l11,12.9c0.9,1.1,3.6,3.4,5.7,4.1
		l0.2,0v1.7v0.3l-0.2,0c-2.2-0.1-4.3-0.2-6.4-0.2c-2.5,0-5,0.2-7.6,0.2H596v-2h0.3c0.5,0,0.9-0.5,0.9-1.1c0-0.7-0.8-2.4-2.1-3.8
		l-7.3-8.1v9.7c0,2.2,0.6,2.8,2.3,3.2l0.2,0v1.9H590c-2.2,0-4.4-0.2-6.6-0.2c-2,0-3.9,0.1-5.9,0.2l-0.3,0V345.8z M610.2,347.5v-0.2
		V347.5z"/>
	<path class="st1" d="M68.4,288.2c-1.7,0-3.3,0.5-4.8,1.5c-0.5-1.1-1.1-2.1-2-3c-1.7-1.7-4-2.7-6.2-2.7c-2,0-4,0.7-5.6,2.2
		c-0.9,0.7-2.1,1.9-3.9,3.7l-11.7,11.7c-0.1,0-0.4,0-0.4,0c-2.3,0-4.6,1-6.3,2.7c-1.7,1.7-2.7,4-2.7,6.2c0,1.7,0.5,3.3,1.5,4.8
		c-1.1,0.5-2.1,1.1-3,2c-1.7,1.7-2.7,3.9-2.7,6.2c0,2,0.7,4,2.2,5.6c0.7,0.9,1.9,2.1,3.6,3.9l11.4,11.4c0,0.3,0,0.5,0,0.8v0.1
		c0,2.3,1,4.6,2.8,6.3c1.7,1.7,3.9,2.7,6.2,2.7c1.7,0,3.3-0.5,4.8-1.5c0.5,1.1,1.2,2.1,2,3c1.7,1.7,4,2.7,6.2,2.7c2,0,4-0.7,5.6-2.2
		c0.9-0.7,2.2-1.9,3.9-3.7l11.5-11.5l0.1-0.1h0.3h0.1c2.3,0,4.6-1,6.3-2.7c1.7-1.7,2.7-4,2.7-6.2c0-1.6-0.6-3.3-1.5-4.8
		c1.1-0.5,2.1-1.2,3-2.1c1.7-1.7,2.7-3.9,2.7-6.2c0-2-0.8-4-2.2-5.6c-0.7-0.9-1.9-2.1-3.7-3.9l-11.4-11.4c0-0.3,0-0.5,0-0.7v-0.1
		c0-2.3-1-4.6-2.7-6.3C72.8,289.1,70.6,288.2,68.4,288.2 M53.7,290.8c1.1-0.9,2.8-0.5,3.5,0.2c0.8,0.8,1.6,2.3,0,4.3
		c-0.9,1.1-2.7,3-5.3,5.6l-7.4,7.4l-0.3-0.3c-1.7-1.7-3-3-4.2-4l9.5-9.5C51.6,292.6,52.9,291.4,53.7,290.8 M35.2,316.1
		c-1.9-2-3.2-3.2-3.8-4.1c-0.8-1.3-0.5-2.8,0.3-3.5c1.7-1.7,3.4-0.8,4.3,0c0.8,0.7,11.2,11,17.3,17l-4.3,4.3l-2.7-2.7l0,0
		L35.2,316.1z M27.2,325.1c-0.6-0.9-0.5-2.7,0.3-3.5c0.8-0.8,2.4-1.6,4.3,0c1.1,0.9,3,2.7,5.6,5.3l7.3,7.3l-0.5,0.5
		c-1.6,1.6-2.8,2.8-3.7,3.9l-9.4-9.4C29,327.2,27.9,325.9,27.2,325.1 M44.4,347.1c-1.5-1.7,0-3.7,0-3.7c1-1.1,3.1-3.4,5.6-6l7.6-7.6
		l4.2-4.3l4.4,4.4l-2.7,2.7l-11.1,11.1c-1.9,2-3.2,3.1-4.1,3.8C48.2,347.5,46.1,349.1,44.4,347.1 M65.3,347.9c-2,2-3.2,3-4,3.7
		c-1,0.8-2.1,0.6-2.1,0.6c-0.3,0-1-0.1-1.6-0.8c-0.8-0.8-0.9-1.5-0.9-2.1c0-0.6,0.2-1.3,1-2.2c1-1.1,2.7-3,5.3-5.6l7.4-7.4l0.3,0.3
		c1.8,1.7,3.1,3,4.2,4L65.3,347.9z M68.7,315.2L68.7,315.2l11.1,11.1c2,2,3.1,3.3,3.8,4.1c0.7,0.9,0.8,2.4-0.1,3.5
		c-0.8,0.9-1.6,1-2.2,1c-0.6,0-1.3-0.2-2.2-1c-1.1-1-3-2.7-5.6-5.3l-11.7-11.7l4.3-4.4L68.7,315.2z M83.9,313.3
		c2,1.9,3.1,3.2,3.8,4.1c0.8,1.1,0.5,2.8-0.2,3.5c-0.8,0.8-2.4,1.6-4.3,0c-1.1-1-3-2.7-5.6-5.3l-7.3-7.3l0.5-0.5
		c1.6-1.6,2.8-2.8,3.7-3.9L83.9,313.3z M70.3,299.5c-1,1.1-2.7,3-5.3,5.6l-7.6,7.6v0l-4.3,4.2l-4.3-4.3l2.7-2.7l11.1-11.1
		c1.9-1.9,3.2-3.1,4.1-3.8c0,0,0,0,0,0c1.2-0.8,2.7-0.5,3.5,0.3C71.6,296.6,71.3,298.2,70.3,299.5"/>
	<path class="st0" d="M610.2,311.9c0-2.9,2.3-5.2,5.2-5.2c2.8,0,5.2,2.3,5.2,5.2c0,2.8-2.3,5.2-5.2,5.2
		C612.5,317.1,610.2,314.8,610.2,311.9 M619.2,311.9c0-2.4-1.7-4.2-3.9-4.2c-2.2,0-3.9,1.7-3.9,4.2c0,2.4,1.7,4.2,3.9,4.2
		C617.5,316.1,619.2,314.3,619.2,311.9 M613.4,309h2.2c1.4,0,2.2,0.5,2.2,1.7c0,1-0.6,1.5-1.5,1.6l1.6,2.6h-1.1l-1.5-2.5h-0.7v2.5
		h-1.1V309z M614.4,311.5h1c0.6,0,1.2-0.1,1.2-0.9c0-0.7-0.6-0.8-1.2-0.8h-1V311.5z"/>
</g>
</svg>
